<svg width="438" height="1053" viewBox="0 0 438 1053" fill="none" xmlns="http://www.w3.org/2000/svg">
<path d="M1.50041 200.5C21.4507 190.137 41.4009 179.773 79.0812 163.228C116.762 146.682 171.567 124.268 225.14 108.021C278.712 91.775 329.39 82.3756 364.555 77.172C399.72 71.9683 417.836 71.2453 436.5 70.5003" stroke="white" stroke-width="3" stroke-linecap="round"/>
<path d="M1.50041 435.5C44.0079 418.868 86.5154 402.236 118.953 385.473C151.391 368.709 172.47 352.318 204.844 321.94C237.219 291.561 280.249 247.691 306.248 220.27C332.248 192.85 339.913 183.208 358.409 166.31C376.904 149.411 405.998 125.548 436.5 99.5003" stroke="white" stroke-width="3" stroke-linecap="round"/>
<path d="M436.5 442.212C435.111 443.131 433.722 444.05 381.953 407.533C330.185 371.016 228.079 297.035 157.651 226.298C87.2235 155.562 51.5675 90.3111 31.6943 54.5146C11.8211 18.718 8.81121 14.3527 6.56605 10.7253C4.32088 7.098 2.93169 4.34093 1.50041 1.50032" stroke="white" stroke-width="3" stroke-linecap="round"/>
<path d="M1.50041 766.5C2.73082 764.573 3.96123 762.646 35.1093 726.323C66.2574 689.999 127.286 619.338 169.552 574.907C211.819 530.477 233.474 514.417 255.088 500.684C276.703 486.951 297.62 476.031 327.589 466.069C357.559 456.107 395.948 447.435 435.5 438.5" stroke="white" stroke-width="3" stroke-linecap="round"/>
<path d="M435.684 680.972C420.985 648.341 411.407 625.453 406.588 612.404C403.96 605.286 400.21 597.756 394.477 589.162C388.743 580.568 380.948 571.291 371.141 562.353C361.335 553.415 349.753 545.097 334.432 539.532C319.111 533.968 300.403 531.408 244.66 532.329C188.918 533.25 96.7102 537.729 1.70772 542.344" stroke="white" stroke-width="3" stroke-linecap="round"/>
<path d="M1.50041 651.5C3.43374 652.148 5.36707 652.795 45.0297 664.296C84.6923 675.796 162.026 698.13 210.322 710.121C258.619 722.112 275.536 723.083 300.563 720.023C325.59 716.963 358.215 709.842 380.097 706.174C401.979 702.505 412.129 702.505 419.653 701.858C427.178 701.21 431.77 699.916 436.5 697.601" stroke="white" stroke-width="3" stroke-linecap="round"/>
<path d="M1.50041 1051.5C113.104 1003.65 224.708 955.805 290.81 931.478C356.912 907.15 374.129 907.792 386.318 908.926C398.507 910.06 405.145 911.665 412.61 911.85C420.075 912.035 428.165 910.751 436.5 909.427" stroke="white" stroke-width="3" stroke-linecap="round"/>
<path d="M435.5 866.5C323.241 840.819 210.982 815.137 137.776 798.895C64.5708 782.653 33.8206 776.629 1.50041 768.5" stroke="white" stroke-width="3" stroke-linecap="round"/>
</svg>
